<?xml version="1.0" encoding="UTF-8" standalone="no"?><svg xmlns="http://www.w3.org/2000/svg" xmlns:xlink="http://www.w3.org/1999/xlink" contentStyleType="text/css" height="421px" preserveAspectRatio="none" style="width:188px;height:421px;background:#FFFFFF;" version="1.1" viewBox="0 0 188 421" width="188px" zoomAndPan="magnify"><defs/><g><!--MD5=[af0a8305a588b84ac555c67f9d0f0fdf]
class Graphe--><g id="elem_Graphe"><rect codeLine="24" fill="#F0F8FF" height="89.875" id="Graphe" rx="2.5" ry="2.5" style="stroke:#2F4F4F;stroke-width:0.5;" width="50" x="7" y="7"/><text fill="#000000" font-family="Helvetica" font-size="12" lengthAdjust="spacing" textLength="44" x="10" y="23.1387">Graphe</text><line style="stroke:#2F4F4F;stroke-width:0.5;" x1="8" x2="56" y1="30.9688" y2="30.9688"/><text fill="#000000" font-family="Helvetica" font-size="12" lengthAdjust="spacing" textLength="4" x="13" y="46.1074"> </text><line style="stroke:#2F4F4F;stroke-width:1.0;" x1="8" x2="56" y1="52.9375" y2="52.9375"/><text fill="#000000" font-family="Helvetica" font-size="12" lengthAdjust="spacing" textLength="4" x="13" y="68.0762"> </text><line style="stroke:#2F4F4F;stroke-width:1.0;" x1="8" x2="56" y1="74.9063" y2="74.9063"/><text fill="#000000" font-family="Helvetica" font-size="12" lengthAdjust="spacing" textLength="4" x="13" y="90.0449"> </text></g><!--MD5=[ae7bc4368a5efd04dbc3ae20ffd6acf5]
class Arc--><g id="elem_Arc"><rect codeLine="32" fill="#F0F8FF" height="89.875" id="Arc" rx="2.5" ry="2.5" style="stroke:#2F4F4F;stroke-width:0.5;" width="26" x="47" y="325"/><text fill="#000000" font-family="Helvetica" font-size="12" lengthAdjust="spacing" textLength="20" x="50" y="341.1387">Arc</text><line style="stroke:#2F4F4F;stroke-width:0.5;" x1="48" x2="72" y1="348.9688" y2="348.9688"/><text fill="#000000" font-family="Helvetica" font-size="12" lengthAdjust="spacing" textLength="4" x="53" y="364.1074"> </text><line style="stroke:#2F4F4F;stroke-width:1.0;" x1="48" x2="72" y1="370.9375" y2="370.9375"/><text fill="#000000" font-family="Helvetica" font-size="12" lengthAdjust="spacing" textLength="4" x="53" y="386.0762"> </text><line style="stroke:#2F4F4F;stroke-width:1.0;" x1="48" x2="72" y1="392.9063" y2="392.9063"/><text fill="#000000" font-family="Helvetica" font-size="12" lengthAdjust="spacing" textLength="4" x="53" y="408.0449"> </text></g><!--MD5=[2d9330fe0dd1834c0ffbd28a95a0931a]
class Sommet--><g id="elem_Sommet"><rect codeLine="40" fill="#F0F8FF" height="89.875" id="Sommet" rx="2.5" ry="2.5" style="stroke:#2F4F4F;stroke-width:0.5;" width="56" x="55" y="158"/><text fill="#000000" font-family="Helvetica" font-size="12" lengthAdjust="spacing" textLength="50" x="58" y="174.1387">Sommet</text><line style="stroke:#2F4F4F;stroke-width:0.5;" x1="56" x2="110" y1="181.9688" y2="181.9688"/><text fill="#000000" font-family="Helvetica" font-size="12" lengthAdjust="spacing" textLength="4" x="61" y="197.1074"> </text><line style="stroke:#2F4F4F;stroke-width:1.0;" x1="56" x2="110" y1="203.9375" y2="203.9375"/><text fill="#000000" font-family="Helvetica" font-size="12" lengthAdjust="spacing" textLength="4" x="61" y="219.0762"> </text><line style="stroke:#2F4F4F;stroke-width:1.0;" x1="56" x2="110" y1="225.9063" y2="225.9063"/><text fill="#000000" font-family="Helvetica" font-size="12" lengthAdjust="spacing" textLength="4" x="61" y="241.0449"> </text></g><!--MD5=[2b8c6153ace525a7e4139b40a0ae4b7f]
link Sommet to Arc--><g id="link_Sommet_Arc"><path codeLine="49" d="M63.0876,253.365 C60.5644,261.476 58.3841,269.885 57,278 C54.7241,291.343 54.3064,305.942 54.7585,319.4635 " fill="none" id="Sommet-Arc" style="stroke:#000000;stroke-width:1.0;"/><polygon fill="#000000" points="54.9822,324.7857,58.6007,315.6256,54.7722,319.7901,50.6077,315.9616,54.9822,324.7857" style="stroke:#000000;stroke-width:1.0;"/><polygon fill="#000000" points="64.699,248.358,58.1346,255.7003,63.1675,253.1177,65.7501,258.1506,64.699,248.358" style="stroke:#000000;stroke-width:1.0;"/><text fill="#000000" font-family="sans-serif" font-size="13" lengthAdjust="spacing" textLength="43" x="58" y="291.0669">source</text><text fill="#000000" font-family="sans-serif" font-size="13" lengthAdjust="spacing" textLength="8" x="53.5629" y="267.8762">1</text><text fill="#000000" font-family="sans-serif" font-size="13" lengthAdjust="spacing" textLength="7" x="54.7498" y="313.8008">*</text></g><!--MD5=[2b8c6153ace525a7e4139b40a0ae4b7f]
link Sommet to Arc--><g id="link_Sommet_Arc"><path codeLine="51" d="M104.999,253.079 C108.501,266.699 109.865,281.463 106,295 C100.2046,315.3007 87.0566,335.4602 76.2952,349.5989 " fill="none" id="Sommet-Arc-1" style="stroke:#000000;stroke-width:1.0;"/><polygon fill="#000000" points="73.0429,353.7869,81.7222,349.1319,76.1096,349.8378,75.4036,344.2252,73.0429,353.7869" style="stroke:#000000;stroke-width:1.0;"/><polygon fill="#000000" points="103.6176,248.116,102.1788,257.8592,104.959,252.9327,109.8855,255.7129,103.6176,248.116" style="stroke:#000000;stroke-width:1.0;"/><text fill="#000000" font-family="sans-serif" font-size="13" lengthAdjust="spacing" textLength="71" x="109" y="291.0669">destination</text><text fill="#000000" font-family="sans-serif" font-size="13" lengthAdjust="spacing" textLength="8" x="98.0583" y="267.9298">1</text><text fill="#000000" font-family="sans-serif" font-size="13" lengthAdjust="spacing" textLength="7" x="81.1076" y="339.3565">*</text></g><!--MD5=[098b7714e8d27a940502882c56de1ba4]
link Graphe to Sommet--><g id="link_Graphe_Sommet"><path codeLine="53" d="M51.0497,108.6543 C51.0497,108.6543 59.6549,133.796 63.6569,145.488 " fill="none" id="Graphe-Sommet" style="stroke:#000000;stroke-width:1.0;"/><polygon fill="#000000" points="67.8948,157.869,68.7646,148.0586,66.2756,153.1385,61.1957,150.6494,67.8948,157.869" style="stroke:#000000;stroke-width:1.0;"/><line style="stroke:#000000;stroke-width:1.0;" x1="66.2756" x2="63.6849" y1="153.1385" y2="145.5695"/><polygon fill="#000000" points="47.1636,97.301,45.3222,104.273,51.0497,108.6543,52.8911,101.6823,47.1636,97.301" style="stroke:#000000;stroke-width:1.0;"/><text fill="#000000" font-family="sans-serif" font-size="13" lengthAdjust="spacing" textLength="8" x="40.7335" y="116.8112">1</text><text fill="#000000" font-family="sans-serif" font-size="13" lengthAdjust="spacing" textLength="7" x="58.0459" y="146.8965">*</text></g><!--MD5=[810ad004eab77c4f6f542add87b578c7]
link Graphe to Arc--><g id="link_Graphe_Arc"><path codeLine="55" d="M31.52,109.272 C31.52,109.272 33.1274,201.901 38,248 C40.2276,269.075 44.0351,291.998 47.8625,312.167 " fill="none" id="Graphe-Arc" style="stroke:#000000;stroke-width:1.0;"/><polygon fill="#000000" points="50.3641,324.9762,52.5651,315.3764,49.4059,320.0689,44.7134,316.9096,50.3641,324.9762" style="stroke:#000000;stroke-width:1.0;"/><line style="stroke:#000000;stroke-width:1.0;" x1="49.4059" x2="47.8722" y1="320.0689" y2="312.217"/><polygon fill="#000000" points="31.487,97.272,27.5035,103.283,31.52,109.272,35.5035,103.261,31.487,97.272" style="stroke:#000000;stroke-width:1.0;"/><text fill="#000000" font-family="sans-serif" font-size="13" lengthAdjust="spacing" textLength="8" x="22.8524" y="116.7781">1</text><text fill="#000000" font-family="sans-serif" font-size="13" lengthAdjust="spacing" textLength="7" x="41.3527" y="314.0199">*</text></g><!--MD5=[4091a4191a77c3b8b207de73da704a50]
@startuml
hide circle
hide empty members
hide empty methods

skinparam classAttributeIconSize 0

skinparam roundcorner 5

skinparam class {
	BackgroundColor AliceBlue
	BorderColor DarkSlateGray
	ArrowColor Black
	FontColor Black
	FontSize 12
	FontName Helvetica
}

skinparam arrow {
    MessageAlign center
}


		 
Class Graphe {

- -

- -
	
}

Class Arc {
	
	- -
	
	- -

}

Class Sommet {
	
	- -

	- -
			
}


Sommet <- -> Arc : "1" source "*"

Sommet <- -> Arc : "1" destination "*"

Graphe "1" *- -> "*" Sommet 

Graphe "1" *- -> "*" Arc
@enduml

PlantUML version 1.2022.2beta9(Unknown compile time)
(GPL source distribution)
Java Runtime: Java(TM) SE Runtime Environment
JVM: Java HotSpot(TM) 64-Bit Server VM
Default Encoding: UTF-8
Language: en
Country: US
--></g></svg>